<svg preserveAspectRatio="none" width="100%" height="100%" overflow="visible" style="display: block;" viewBox="0 0 16 16" fill="none" xmlns="http://www.w3.org/2000/svg">
<g id="learn">
<path id="Vector" d="M1.33333 4.66667H14.6667M9.33333 8H12M9.33333 10.6667H12M4.96481 10.8509L6.80743 9.92962C7.2988 9.68394 7.2988 8.98273 6.80743 8.73705L4.96481 7.81574C4.52154 7.5941 4 7.91644 4 8.41202V10.2546C4 10.7502 4.52154 11.0726 4.96481 10.8509ZM4 14.6667H12C13.4728 14.6667 14.6667 13.4728 14.6667 12V4C14.6667 2.52724 13.4728 1.33333 12 1.33333H4C2.52724 1.33333 1.33333 2.52724 1.33333 4V12C1.33333 13.4728 2.52724 14.6667 4 14.6667Z" stroke="var(--stroke-0, #0D47A1)" stroke-width="1.5" stroke-linecap="round"/>
</g>
</svg>
