<svg preserveAspectRatio="none" width="100%" height="100%" overflow="visible" style="display: block;" viewBox="0 0 16 16" fill="none" xmlns="http://www.w3.org/2000/svg">
<g id="resources">
<path id="Icon" d="M2.09677 11.567L1.56644 12.0973H1.56644L2.09677 11.567ZM2.09677 11.0997L2.6271 11.63L2.09677 11.0997ZM4.90029 13.9032L4.36996 13.3729V13.3729L4.90029 13.9032ZM4.43304 13.9032L4.96337 13.3729V13.3729L4.43304 13.9032ZM7.23656 11.0997L6.70623 11.63L7.23656 11.0997ZM7.23656 11.567L7.76689 12.0973V12.0973L7.23656 11.567ZM4.43304 8.76344L3.90271 8.23311L4.43304 8.76344ZM11.25 6C11.25 6.41421 11.5858 6.75 12 6.75C12.4142 6.75 12.75 6.41421 12.75 6H12H11.25ZM12.75 2C12.75 1.58579 12.4142 1.25 12 1.25C11.5858 1.25 11.25 1.58579 11.25 2H12H12.75ZM14 4.75C14.4142 4.75 14.75 4.41421 14.75 4C14.75 3.58579 14.4142 3.25 14 3.25V4V4.75ZM10 3.25C9.58579 3.25 9.25 3.58579 9.25 4C9.25 4.41421 9.58579 4.75 10 4.75V4V3.25ZM3 2V2.75H6.33333V2V1.25H3V2ZM6.66667 2.33333H5.91667V5.66667H6.66667H7.41667V2.33333H6.66667ZM6.33333 6V5.25H3V6V6.75H6.33333V6ZM2.66667 5.66667H3.41667V2.33333H2.66667H1.91667V5.66667H2.66667ZM3 6V5.25C3.23012 5.25 3.41667 5.43655 3.41667 5.66667H2.66667H1.91667C1.91667 6.26498 2.40169 6.75 3 6.75V6ZM6.66667 5.66667H5.91667C5.91667 5.43655 6.10321 5.25 6.33333 5.25V6V6.75C6.93164 6.75 7.41667 6.26498 7.41667 5.66667H6.66667ZM6.33333 2V2.75C6.10321 2.75 5.91667 2.56345 5.91667 2.33333H6.66667H7.41667C7.41667 1.73502 6.93164 1.25 6.33333 1.25V2ZM3 2V1.25C2.40169 1.25 1.91667 1.73502 1.91667 2.33333H2.66667H3.41667C3.41667 2.56345 3.23012 2.75 3 2.75V2ZM10.3333 9.33333V10.0833H13.6667V9.33333V8.58333H10.3333V9.33333ZM14 9.66667H13.25V13H14H14.75V9.66667H14ZM13.6667 13.3333V12.5833H10.3333V13.3333V14.0833H13.6667V13.3333ZM10 13H10.75V9.66667H10H9.25V13H10ZM10.3333 13.3333V12.5833C10.5635 12.5833 10.75 12.7699 10.75 13H10H9.25C9.25 13.5983 9.73502 14.0833 10.3333 14.0833V13.3333ZM14 13H13.25C13.25 12.7699 13.4365 12.5833 13.6667 12.5833V13.3333V14.0833C14.265 14.0833 14.75 13.5983 14.75 13H14ZM13.6667 9.33333V10.0833C13.4365 10.0833 13.25 9.89679 13.25 9.66667H14H14.75C14.75 9.06836 14.265 8.58333 13.6667 8.58333V9.33333ZM10.3333 9.33333V8.58333C9.73502 8.58333 9.25 9.06836 9.25 9.66667H10H10.75C10.75 9.89679 10.5635 10.0833 10.3333 10.0833V9.33333ZM4.90029 8.76344L4.36996 9.29377L6.70623 11.63L7.23656 11.0997L7.76689 10.5694L5.43062 8.23311L4.90029 8.76344ZM7.23656 11.567L6.70623 11.0366L4.36996 13.3729L4.90029 13.9032L5.43062 14.4336L7.76689 12.0973L7.23656 11.567ZM4.43304 13.9032L4.96337 13.3729L2.6271 11.0366L2.09677 11.567L1.56644 12.0973L3.90271 14.4336L4.43304 13.9032ZM2.09677 11.0997L2.6271 11.63L4.96337 9.29377L4.43304 8.76344L3.90271 8.23311L1.56644 10.5694L2.09677 11.0997ZM2.09677 11.567L2.6271 11.0366C2.79097 11.2005 2.79097 11.4662 2.6271 11.63L2.09677 11.0997L1.56644 10.5694C1.14452 10.9913 1.14452 11.6754 1.56644 12.0973L2.09677 11.567ZM4.90029 13.9032L4.36996 13.3729C4.53383 13.209 4.79951 13.209 4.96337 13.3729L4.43304 13.9032L3.90271 14.4336C4.32463 14.8555 5.0087 14.8555 5.43062 14.4336L4.90029 13.9032ZM7.23656 11.0997L6.70623 11.63C6.54237 11.4662 6.54237 11.2005 6.70623 11.0366L7.23656 11.567L7.76689 12.0973C8.18881 11.6754 8.18881 10.9913 7.76689 10.5694L7.23656 11.0997ZM4.90029 8.76344L5.43062 8.23311C5.0087 7.81119 4.32463 7.81119 3.90271 8.23311L4.43304 8.76344L4.96337 9.29377C4.79951 9.45763 4.53383 9.45763 4.36996 9.29377L4.90029 8.76344ZM12 6H12.75V4H12H11.25V6H12ZM12 4H12.75V2H12H11.25V4H12ZM12 4V4.75H14V4V3.25H12V4ZM10 4V4.75H12V4V3.25H10V4Z" fill="var(--stroke-0, #0D47A1)"/>
</g>
</svg>
