<svg width="24" height="24" viewBox="0 0 24 24" fill="none" xmlns="http://www.w3.org/2000/svg">
<rect width="24" height="24" fill="#DDDDDD"/>
<g id="Prep Course">
<rect width="18280" height="9519" transform="translate(-10520 -8340)" fill="#DFE1E7"/>
<g id="Active Drill Blind Review Actual">
<rect width="1920" height="924" transform="translate(-320 -16)" fill="#F5F9FF"/>
<g id="Container">
<mask id="path-1-inside-1_18617_12004" fill="white">
<path d="M-320 -16H1600V77H-320V-16Z"/>
</mask>
<path d="M-320 -16H1600V77H-320V-16Z" fill="#F5F9FF"/>
<path d="M1600 77V76H-320V77V78H1600V77Z" fill="#DFE1E7" mask="url(#path-1-inside-1_18617_12004)"/>
<g id="Frame 40932">
<g id="Heading 1">
<g id="Frame 1000002764">
<g id="huge-icon/education/outline/book 04">
<path id="Vector" d="M20 16H7C5.34315 16 4 17.3431 4 19M20 16V19C20 20.6569 18.6569 22 17 22H7C5.34315 22 4 20.6569 4 19M20 16V5C20 3.34315 18.6569 2 17 2H7C5.34315 2 4 3.34315 4 5V19M9 2V9L12 6.8L15 9V2" stroke="#00BC54" stroke-width="1.5" stroke-linecap="round" stroke-linejoin="round"/>
</g>
</g>
</g>
</g>
</g>
</g>
</g>
</svg>
