<svg width="9" height="9" viewBox="0 0 9 9" fill="none" xmlns="http://www.w3.org/2000/svg">
<rect width="9" height="9" fill="#DDDDDD"/>
<g id="Login">
<rect width="8172" height="1124" transform="translate(-188.588 -511.322)" fill="#DFE1E7"/>
<g id="Login_2">
<rect x="-88.5879" y="-411.322" width="1920" height="924" rx="16" fill="#0D47A1"/>
<g id="Illustration">
<rect x="-76.5879" y="-399.322" width="942" height="900" rx="16" fill="#0D47A1"/>
<g id="Frame 2147225236" clip-path="url(#clip0_18617_12004)">
<g id="Group 1686550910">
<g id="Group 1686550909">
<g id="Frame 40934">
<g id="Frame 40933">
<g id="Container">
<path d="M-3.82422 -55.0488H679.76C684.449 -55.0488 688.25 -51.2474 688.25 -46.5586V28.7568H-12.3145V-46.5586C-12.3143 -51.2473 -8.51295 -55.0487 -3.82422 -55.0488Z" fill="#EDF3FF"/>
<path d="M-3.82422 -55.0488H679.76C684.449 -55.0488 688.25 -51.2474 688.25 -46.5586V28.7568H-12.3145V-46.5586C-12.3143 -51.2473 -8.51295 -55.0487 -3.82422 -55.0488Z" stroke="#DFE1E7" stroke-width="0.547744"/>
<g id="Frame 1000002739">
<g id="Frame 1000002738">
<g id="Frame 1000002740">
<g id="Button">
<g id="huge-icon/education/outline/book 02" clip-path="url(#clip1_18617_12004)">
<path id="Vector" d="M4.38209 2.20425V5.67308M1.82596 2.92159C1.22094 2.92159 0.730469 3.41205 0.730469 4.01707V5.84289C0.730469 6.64958 1.38442 7.30354 2.19112 7.30354H6.57307C7.37976 7.30354 8.03372 6.64958 8.03372 5.84289V4.01707C8.03372 3.41205 7.54325 2.92159 6.93823 2.92159M2.33573 1.46368C2.90278 1.52471 3.66462 1.68888 4.20746 2.05115C4.31179 2.12077 4.45239 2.12077 4.55672 2.05115C5.09957 1.68888 5.8614 1.52471 6.42845 1.46368C6.70909 1.43348 6.93823 1.65667 6.93823 1.93204V4.67435C6.93823 4.94972 6.70909 5.173 6.42845 5.2032C5.8614 5.26422 5.09957 5.42839 4.55672 5.79067C4.45239 5.86029 4.31179 5.86029 4.20746 5.79067C3.66462 5.42839 2.90278 5.26422 2.33573 5.2032C2.05509 5.173 1.82596 4.94972 1.82596 4.67435V1.93204C1.82596 1.65667 2.05509 1.43348 2.33573 1.46368Z" stroke="#666D80" stroke-width="0.821615" stroke-linecap="round" stroke-linejoin="round"/>
</g>
</g>
</g>
</g>
</g>
</g>
</g>
</g>
</g>
</g>
</g>
</g>
</g>
</g>
<defs>
<clipPath id="clip0_18617_12004">
<rect width="875" height="552" fill="white" transform="translate(-12.5879 -55.3223)"/>
</clipPath>
<clipPath id="clip1_18617_12004">
<rect width="8.7639" height="8.7639" fill="white"/>
</clipPath>
</defs>
</svg>
