<svg preserveAspectRatio="none" width="100%" height="100%" overflow="visible" style="display: block;" viewBox="0 0 8.7639 8.7639" fill="none" xmlns="http://www.w3.org/2000/svg">
<g id="huge-icon/education/outline/book 02" clip-path="url(#clip0_0_680)">
<path id="Vector" d="M4.38195 2.20397V5.67279M1.82581 2.9213C1.22079 2.9213 0.730325 3.41177 0.730325 4.01679V5.8426C0.730325 6.64929 1.38428 7.30325 2.19097 7.30325H6.57292C7.37962 7.30325 8.03357 6.64929 8.03357 5.8426V4.01679C8.03357 3.41177 7.54311 2.9213 6.93809 2.9213M2.33559 1.46339C2.90264 1.52442 3.66447 1.68859 4.20732 2.05086C4.31165 2.12049 4.45225 2.12049 4.55658 2.05086C5.09942 1.68859 5.86126 1.52442 6.42831 1.46339C6.70895 1.43319 6.93809 1.65638 6.93809 1.93175V4.67407C6.93809 4.94944 6.70895 5.17271 6.42831 5.20291C5.86126 5.26394 5.09942 5.42811 4.55658 5.79038C4.45225 5.86 4.31165 5.86 4.20732 5.79038C3.66447 5.42811 2.90264 5.26394 2.33559 5.20291C2.05495 5.17271 1.82581 4.94944 1.82581 4.67407V1.93175C1.82581 1.65638 2.05495 1.43319 2.33559 1.46339Z" stroke="var(--stroke-0, #666D80)" stroke-width="0.821615" stroke-linecap="round" stroke-linejoin="round"/>
</g>
<defs>
<clipPath id="clip0_0_680">
<rect width="8.7639" height="8.7639" fill="white"/>
</clipPath>
</defs>
</svg>
