<svg preserveAspectRatio="none" width="100%" height="100%" overflow="visible" style="display: block;" viewBox="0 0 8.7639 8.7639" fill="none" xmlns="http://www.w3.org/2000/svg">
<g id="huge-icon/education/outline/book" clip-path="url(#clip0_0_717)">
<path id="Vector" d="M1.82581 3.01429C2.28803 3.08588 2.80364 3.20488 3.28646 3.39159M1.82581 4.47494C2.05933 4.51111 2.30647 4.55938 2.55614 4.62237M4.38195 2.21047V7.41372M1.45858 1.09961C2.26865 1.19115 3.35698 1.43741 4.13248 1.98081C4.28152 2.08525 4.48237 2.08525 4.63142 1.98081C5.40691 1.43741 6.49525 1.19115 7.30532 1.09961C7.70623 1.05431 8.03357 1.3891 8.03357 1.80215V5.91562C8.03357 6.32868 7.70623 6.66359 7.30532 6.70889C6.49525 6.80043 5.40691 7.04668 4.63142 7.59009C4.48238 7.69453 4.28152 7.69453 4.13248 7.59009C3.35698 7.04668 2.26865 6.80043 1.45858 6.70889C1.05766 6.66359 0.730325 6.32868 0.730325 5.91562V1.80215C0.730325 1.3891 1.05766 1.05431 1.45858 1.09961Z" stroke="var(--stroke-0, #666D80)" stroke-width="0.821615" stroke-linecap="round"/>
</g>
<defs>
<clipPath id="clip0_0_717">
<rect width="8.7639" height="8.7639" fill="white"/>
</clipPath>
</defs>
</svg>
