<svg width="18" height="18" viewBox="0 0 18 18" fill="none" xmlns="http://www.w3.org/2000/svg">
<rect width="18" height="18" fill="#DDDDDD"/>
<g id="Drill Result">
<rect x="-1769" y="-771" width="1920" height="2751" rx="20" fill="#F3F7FF"/>
<g id="Frame 1000001003">
<g id="Frame 42">
<rect x="-1472.5" y="-178.5" width="1599" height="868" rx="23.5" fill="white"/>
<rect x="-1472.5" y="-178.5" width="1599" height="868" rx="23.5" stroke="#DFE1E7"/>
<g id="Frame 1000002732">
<g id="Container">
<path d="M-1425 -44.5H79C91.9786 -44.5 102.5 -33.9787 102.5 -21V191.5H-1448.5V-21C-1448.5 -33.9787 -1437.98 -44.5 -1425 -44.5Z" fill="white"/>
<path d="M-1425 -44.5H79C91.9786 -44.5 102.5 -33.9787 102.5 -21V191.5H-1448.5V-21C-1448.5 -33.9787 -1437.98 -44.5 -1425 -44.5Z" stroke="#DFE1E7"/>
<g id="Container_2">
<g id="Container_3">
<g id="Container_4">
<g id="Container_5">
<g id="Button">
<rect x="-8.5" y="-8.5" width="35" height="35" rx="11.5" fill="#F9F9FB"/>
<rect x="-8.5" y="-8.5" width="35" height="35" rx="11.5" stroke="#DFE1E6"/>
<g id="huge-icon/education/outline/pencil">
<path id="Vector" d="M10.7899 4.37336L13.6267 7.21023M2.25 15.75L5.00458 15.2256C5.58864 15.1144 6.12577 14.8302 6.54618 14.4098L15.1378 5.81815C15.9541 5.00189 15.9541 3.67846 15.1378 2.8622C14.3215 2.04593 12.9981 2.04593 12.1818 2.8622L3.59022 11.4538C3.16981 11.8742 2.88555 12.4114 2.77437 12.9954L2.25 15.75Z" stroke="#666D80" stroke-width="1.5" stroke-linecap="round" stroke-linejoin="round"/>
</g>
</g>
</g>
</g>
</g>
</g>
</g>
</g>
</g>
</g>
</g>
</svg>
