<svg viewBox="0 0 20 20" fill="none" xmlns="http://www.w3.org/2000/svg" aria-hidden="true">
  <path d="M11.6667 17.5H10C8.15905 17.5 6.66667 16.0076 6.66667 14.1667V5.83333C6.66667 3.99238 8.15905 2.5 10 2.5H15C16.8409 2.5 18.3333 3.99238 18.3333 5.83333V11.6667M1.66667 5.83333H4.16667M10 5.83333H15M10 9.16667H15M10 12.5H12.5M13.3333 15.8333L14.794 17.0019C15.1422 17.2805 15.6481 17.2355 15.9417 16.8999L18.3333 14.1667M2.91667 17.5L3.5 16.7222C3.93274 16.1452 4.16667 15.4435 4.16667 14.7222V3.75C4.16667 3.05964 3.60702 2.5 2.91667 2.5C2.22631 2.5 1.66667 3.05964 1.66667 3.75V14.7222C1.66667 15.4435 1.90059 16.1452 2.33333 16.7222L2.91667 17.5Z" stroke="currentColor" stroke-width="1.25" stroke-linecap="round" stroke-linejoin="round"/>
</svg>
