<svg viewBox="0 0 8.7639 8.7639" fill="none" xmlns="http://www.w3.org/2000/svg" aria-hidden="true">
  <path d="M2.9213 2.14533C2.69442 2.14533 2.51049 2.32925 2.51049 2.55614C2.51049 2.78302 2.69442 2.96694 2.9213 2.96694V2.55614V2.14533ZM5.8426 2.96694C6.06948 2.96694 6.25341 2.78302 6.25341 2.55614C6.25341 2.32925 6.06948 2.14533 5.8426 2.14533V2.55614V2.96694ZM2.9213 3.60598C2.69442 3.60598 2.51049 3.7899 2.51049 4.01679C2.51049 4.24367 2.69442 4.42759 2.9213 4.42759V4.01679V3.60598ZM4.38195 4.42759C4.60883 4.42759 4.79276 4.24367 4.79276 4.01679C4.79276 3.7899 4.60883 3.60598 4.38195 3.60598V4.01679V4.42759ZM2.55614 5.8426V6.25341H7.30325V5.8426V5.43179H2.55614V5.8426ZM6.20776 8.03357V7.62276H2.55614V8.03357V8.44438H6.20776V8.03357ZM2.55614 8.03357V7.62276C2.178 7.62276 1.87146 7.31622 1.87146 6.93809H1.46065H1.04984C1.04984 7.76999 1.72423 8.44438 2.55614 8.44438V8.03357ZM6.20776 8.03357V8.44438C7.03966 8.44438 7.71406 7.76999 7.71406 6.93809H7.30325H6.89244C6.89244 7.31622 6.5859 7.62276 6.20776 7.62276V8.03357ZM2.55614 5.8426V5.43179C1.72423 5.43179 1.04984 6.10618 1.04984 6.93809H1.46065H1.87146C1.87146 6.55995 2.178 6.25341 2.55614 6.25341V5.8426ZM2.55614 0.730325V1.14113H6.20776V0.730325V0.319517H2.55614V0.730325ZM7.30325 1.82581H6.89244V6.93809H7.30325H7.71406V1.82581H7.30325ZM1.46065 6.93809H1.87146V1.82581H1.46065H1.04984V6.93809H1.46065ZM6.20776 0.730325V1.14113C6.5859 1.14113 6.89244 1.44767 6.89244 1.82581H7.30325H7.71406C7.71406 0.993908 7.03966 0.319517 6.20776 0.319517V0.730325ZM2.55614 0.730325V0.319517C1.72423 0.319517 1.04984 0.993908 1.04984 1.82581H1.46065H1.87146C1.87146 1.44767 2.178 1.14113 2.55614 1.14113V0.730325ZM2.9213 2.55614V2.96694H5.8426V2.55614V2.14533H2.9213V2.55614ZM2.9213 4.01679V4.42759H4.38195V4.01679V3.60598H2.9213V4.01679Z" fill="currentColor"/>
</svg>
